<svg viewBox="0 0 900 900" xmlns="http://www.w3.org/2000/svg" fill-rule="evenodd" clip-rule="evenodd" stroke-linejoin="round" stroke-miterlimit="1.414"><circle cx="518.236" cy="410.719" r="368.253" fill="none" transform="translate(-93.582 18.98) scale(1.04487)"/><path d="M447.91 832.11c-211.73 0-383.982-172.253-383.982-383.982 0-211.73 172.253-383.982 383.982-383.982 211.728 0 383.982 172.253 383.982 383.982 0 211.73-172.254 383.982-383.982 383.982zm323.832-331.42c-11.22-3.542-101.518-30.473-204.295-14.02 42.898 117.882 60.355 213.894 63.716 233.845 73.58-49.753 125.96-128.566 140.58-219.825zM576.025 750.542c-4.878-28.775-23.92-129.06-69.967-248.72-.722.247-1.442.48-2.164.732-184.992 64.462-251.4 192.752-257.3 204.818 55.61 43.365 125.495 69.236 201.316 69.236 45.433 0 88.736-9.292 128.115-26.066zm-371.78-82.616c7.43-12.718 97.443-161.757 266.595-216.433 4.275-1.382 8.586-2.68 12.924-3.903-8.233-18.63-17.2-37.284-26.59-55.66-163.79 49.02-322.727 46.97-337.077 46.676-.1 3.33-.167 6.668-.167 10.022 0 84.24 31.933 161.152 84.316 219.298zM126.86 381.454c14.67.193 149.796.78 303.213-39.96-54.343-96.605-112.953-177.825-121.6-189.683-91.757 43.28-160.345 127.87-181.612 229.644zM371.05 129.766c9.067 12.138 68.635 93.258 122.38 192.003 116.625-43.714 165.997-110.074 171.896-118.476-57.92-51.387-134.08-82.646-217.416-82.646-26.463 0-52.195 3.172-76.86 9.118zM701.788 241.22c-6.914 9.354-61.875 79.81-183.14 129.32 7.63 15.623 14.947 31.512 21.76 47.506 2.413 5.67 4.764 11.31 7.064 16.926 109.133-13.722 217.567 8.27 228.38 10.557-.72-77.413-28.384-148.498-74.063-204.31z"/></svg>