<?xml version="1.0" encoding="UTF-8" standalone="no"?><!DOCTYPE svg PUBLIC "-//W3C//DTD SVG 1.1//EN" "http://www.w3.org/Graphics/SVG/1.1/DTD/svg11.dtd"><svg width="100%" height="100%" viewBox="0 0 5577 1898" version="1.1" xmlns="http://www.w3.org/2000/svg" xmlns:xlink="http://www.w3.org/1999/xlink" xml:space="preserve" xmlns:serif="http://www.serif.com/" style="fill-rule:evenodd;clip-rule:evenodd;stroke-miterlimit:2;"><g><rect x="-740.755" y="-228.295" width="7086.61" height="4251.97" style="fill:none;stroke:#231f20;stroke-width:0.25px;"/><path d="M3585.67,-7.037l1987.3,0c0,625.621 14,1249.49 14,1881.11l-2381.72,0c14.13,-112.28 81.72,-171.11 151.7,-227.55c178.95,-20.05 336.53,101.31 439.94,-15.17c35.75,-75.87 -33.99,-172.31 60.68,-197.22c0.06,-40.51 -47.94,-32.96 -45.51,-75.85c97.81,-14.91 24.23,-58.68 30.34,-136.53c32.81,-22.81 94.36,-16.9 106.19,-60.68c-23.14,-113.38 -103.3,-169.76 -151.7,-257.89c14.69,-191.69 -21.1,-332.873 -75.85,-455.108c-14.95,-69.496 100.24,-59.054 45.51,-121.363c-22.76,-50.149 -37.1,31.523 -75.85,15.172c33.04,-34.832 -40.39,-48.785 -60.68,-75.852c-19.98,-30.594 -49.81,-51.336 -91.03,-60.683c20.48,-35.141 114.11,2.859 121.37,-45.508c35.38,-67.156 -25.33,-140.461 -74.69,-166.875Z" style="fill:#e21e27;"/><path d="M3751.38,766.644c-28.36,77.366 -96.07,101.316 -75.85,197.216c-65.36,9.73 -49.16,-62.09 -121.36,-45.51c26.65,-60.61 242.84,-157.29 30.34,-151.706c-11.26,-30.828 131.82,-39.214 166.87,0Z" style="fill:#969a9d;"/><path d="M1612.38,1631.35l91.02,0c9.16,-70.77 -78.58,-34.06 -91.02,0Zm-515.79,-318.58c-6.8,94.59 -126.01,156.82 -106.19,227.56c79.48,-122.8 185.82,-218.73 318.57,-288.24c-2.19,17.93 -27,34.39 0,45.51c67.04,-125.12 146.97,-237.34 288.24,-288.23c-245.08,-33.41 -311.73,231.24 -500.62,303.4Zm1061.92,-257.89c-30.83,12.55 36.44,53.14 45.51,75.85c-21.16,24.37 -74.88,16.16 -91.03,45.51c-128.5,-71.38 -353.12,-118.56 -546.12,-75.85c-97.39,70.18 -109.24,132.8 -182.04,227.55c-2.57,32.91 53.8,6.88 75.85,15.17c-4.12,31.28 -67.17,3.62 -60.68,45.51c-2.58,59.99 23.28,-4.86 45.51,30.34c-64.45,97.4 -168,155.63 -227.56,257.9c188.25,-156.7 518.71,-85.08 743.34,-212.39c-120.39,-102.1 -309.18,-135.8 -470.27,-197.21c-14.51,-28.25 45.43,-50.71 0,-60.68c57.18,-64.16 180.49,-62.24 273.06,-91.02c60.47,16.61 -173.36,56.99 -227.55,75.85c118.01,32.9 231.7,10.27 348.91,60.68c53.5,23.01 86.4,83.93 136.53,91.02c89.34,12.64 178.46,-55.8 242.73,-75.85c-4.14,82.73 -43.45,116.4 -75.85,166.87c-5.75,8.94 -6.46,51.72 -15.17,60.68c-19.04,19.57 -68.45,17.1 -91.03,30.34c-22.44,13.18 -189.65,123.99 -197.21,136.54c-3.47,5.76 78.51,29.26 0,45.51c192.48,45.73 336.56,-88.1 455.11,-166.87c-50.18,232.27 -502.41,172.45 -637.15,303.4c-1.45,29.32 -59.21,-26.24 -60.68,30.34l-197.21,0c9.42,-46.21 81.6,-29.64 91.02,-75.85c-57.63,-29.05 -211.11,19.01 -273.07,75.85l-1259.12,0l0,-1881.11l2518.25,0c-33.01,33.199 -95.03,46.992 -136.53,91.023c-29.55,31.364 -29.81,94.176 -60.68,136.532c-22.49,30.859 -93.1,65.273 -121.36,106.191c-105.67,153.066 -106.31,425.566 0,652.321c28.99,61.83 97.39,100.72 106.19,166.87c-87.29,6.39 -116.27,-45.55 -151.7,-91.02Z" style="fill:#19478f;"/><path d="M2522.59,1676.86c-9.24,56.77 -122.31,140.44 -182.04,197.21l-470.28,0c122.58,-55.78 238.9,-29.84 348.92,-75.85c105.45,-44.1 190.04,-141.91 318.57,-151.7c-8.46,13.48 -45.64,66.41 -15.17,30.34Z" style="fill:#19478f;"/></g></svg>