<?xml version="1.0" encoding="UTF-8" standalone="no"?><!DOCTYPE svg PUBLIC "-//W3C//DTD SVG 1.1//EN" "http://www.w3.org/Graphics/SVG/1.1/DTD/svg11.dtd"><svg width="100%" height="100%" viewBox="0 0 140 39" version="1.1" xmlns="http://www.w3.org/2000/svg" xmlns:xlink="http://www.w3.org/1999/xlink" xml:space="preserve" xmlns:serif="http://www.serif.com/" style="fill-rule:evenodd;clip-rule:evenodd;stroke-linejoin:round;stroke-miterlimit:1.41421;"><rect x="0.146" y="-0.118" width="140.294" height="39.22" style="fill:#263d63;"/><path d="M22.708,22.55l-4.798,-2.552c-0.48,-0.255 -0.78,-0.756 -0.78,-1.299l0,-5.144c0,-0.545 0.299,-1.044 0.78,-1.3l10.508,-5.59c0.432,-0.23 0.95,-0.23 1.382,0l11.806,6.28l-1.381,2.6l-11.117,-5.914l-9.036,4.808l0,3.375l4.017,2.137l-1.381,2.599Zm6.401,9.939c-0.241,0 -0.478,-0.059 -0.691,-0.172l-11.807,-6.281l1.381,-2.599l11.117,5.913l9.037,-4.808l0,-3.375l-4.017,-2.137l1.381,-2.599l4.798,2.553c0.48,0.255 0.78,0.756 0.78,1.299l0,5.144c0,0.543 -0.3,1.044 -0.78,1.299l-10.508,5.592c-0.213,0.113 -0.45,0.172 -0.691,0.172l0,-0.001Z" style="fill:#fff;"/><path d="M123.842,26.551l-0.051,0c-0.443,0.752 -1.04,1.298 -1.789,1.638c-0.763,0.344 -1.592,0.518 -2.429,0.511c-0.955,0 -1.802,-0.165 -2.543,-0.498c-0.723,-0.319 -1.371,-0.785 -1.904,-1.368c-0.537,-0.593 -0.947,-1.289 -1.204,-2.047c-0.277,-0.815 -0.415,-1.671 -0.408,-2.533c0,-0.902 0.145,-1.747 0.435,-2.533c0.271,-0.753 0.683,-1.447 1.214,-2.046c0.524,-0.582 1.164,-1.048 1.879,-1.368c0.756,-0.337 1.576,-0.507 2.404,-0.499c0.579,0 1.09,0.061 1.534,0.18c0.442,0.118 0.834,0.272 1.174,0.459c0.343,0.189 0.631,0.389 0.87,0.602c0.24,0.214 0.435,0.422 0.589,0.626l0.076,0l0,-7.085l3.068,0l0,17.803l-2.915,0l0,-1.842Zm-7.26,-4.297c0,0.479 0.081,0.938 0.243,1.381c0.161,0.443 0.4,0.836 0.716,1.178c0.315,0.341 0.694,0.612 1.137,0.818c0.443,0.205 0.946,0.306 1.509,0.306c0.562,0 1.064,-0.101 1.51,-0.306c0.862,-0.387 1.531,-1.107 1.853,-1.996c0.16,-0.443 0.241,-0.902 0.241,-1.381c0.001,-0.47 -0.08,-0.938 -0.241,-1.381c-0.322,-0.888 -0.992,-1.609 -1.854,-1.995c-0.475,-0.211 -0.991,-0.316 -1.51,-0.307c-0.562,0 -1.065,0.102 -1.508,0.307c-0.43,0.195 -0.816,0.473 -1.137,0.818c-0.316,0.342 -0.555,0.733 -0.716,1.177c-0.161,0.443 -0.244,0.91 -0.243,1.381Zm-8.177,6.139l0,-17.803l3.067,0l0,17.803l-3.067,0Zm-15.387,-6.139c0,-0.971 0.175,-1.854 0.524,-2.648c0.331,-0.766 0.814,-1.458 1.419,-2.033c0.612,-0.573 1.334,-1.016 2.122,-1.304c0.834,-0.309 1.717,-0.465 2.607,-0.459c0.919,0 1.79,0.153 2.608,0.459c0.818,0.306 1.525,0.741 2.122,1.304c0.605,0.576 1.088,1.268 1.418,2.034c0.351,0.793 0.525,1.675 0.525,2.647c0,0.972 -0.176,1.855 -0.525,2.648c-0.331,0.767 -0.814,1.459 -1.419,2.034c-0.613,0.572 -1.334,1.015 -2.121,1.303c-0.835,0.31 -1.718,0.466 -2.608,0.461c-0.89,0.006 -1.773,-0.151 -2.607,-0.46c-0.788,-0.288 -1.51,-0.731 -2.123,-1.304c-0.605,-0.575 -1.087,-1.268 -1.418,-2.035c-0.35,-0.792 -0.525,-1.674 -0.525,-2.647l0.001,0Zm3.067,0c0,0.479 0.081,0.938 0.243,1.381c0.162,0.443 0.4,0.836 0.716,1.178c0.315,0.341 0.694,0.612 1.138,0.818c0.442,0.205 0.947,0.306 1.508,0.306c0.563,0 1.066,-0.101 1.509,-0.306c0.43,-0.195 0.816,-0.473 1.138,-0.818c0.314,-0.342 0.553,-0.734 0.716,-1.178c0.162,-0.443 0.24,-0.902 0.24,-1.381c0,-0.477 -0.078,-0.937 -0.24,-1.381c-0.159,-0.435 -0.402,-0.836 -0.716,-1.177c-0.322,-0.345 -0.709,-0.623 -1.138,-0.818c-0.475,-0.211 -0.99,-0.316 -1.509,-0.307c-0.561,0 -1.066,0.102 -1.509,0.307c-0.43,0.195 -0.816,0.473 -1.138,0.818c-0.315,0.342 -0.553,0.733 -0.715,1.177c-0.162,0.443 -0.244,0.91 -0.243,1.381Zm-9.842,-3.53l-0.997,0l0,-2.608l0.997,0l0,-0.206c0,-0.851 0.06,-1.625 0.18,-2.315c0.118,-0.689 0.345,-1.283 0.677,-1.776c0.332,-0.496 0.797,-0.875 1.393,-1.139c0.596,-0.265 1.372,-0.397 2.327,-0.397c0.698,0 1.345,0.06 1.943,0.179l-0.205,2.61c-0.212,-0.049 -0.425,-0.092 -0.639,-0.128c-0.211,-0.035 -0.425,-0.052 -0.639,-0.052c-0.427,0 -0.766,0.068 -1.023,0.204c-0.245,0.128 -0.453,0.318 -0.602,0.551c-0.144,0.23 -0.237,0.499 -0.28,0.806c-0.044,0.306 -0.065,0.63 -0.065,0.972l0,0.691l2.839,0l0,2.608l-2.839,0l0,9.669l-3.067,0l0,-9.669Zm-10.635,3.07l-4.243,-5.679l3.732,0l2.454,3.684l2.659,-3.683l3.503,0l-4.193,5.679l4.934,6.598l-3.734,0l-3.195,-4.399l-3.223,4.399l-3.627,0l4.935,-6.598l-0.002,-0.001Zm-9.405,6.6l0,-12.278l3.068,0l0,12.277l-3.068,0l0,0.001Zm-4.706,-8.876c-0.596,-0.836 -1.398,-1.254 -2.404,-1.254c-0.408,0 -0.81,0.103 -1.201,0.306c-0.393,0.206 -0.588,0.539 -0.588,0.998c0,0.375 0.161,0.649 0.486,0.819c0.323,0.17 0.733,0.316 1.226,0.435c0.494,0.12 1.027,0.243 1.598,0.371c0.557,0.122 1.094,0.32 1.598,0.589c0.494,0.264 0.902,0.626 1.227,1.087c0.323,0.46 0.487,1.091 0.487,1.893c0,0.733 -0.159,1.352 -0.474,1.854c-0.315,0.503 -0.725,0.908 -1.227,1.214c-0.504,0.307 -1.069,0.53 -1.7,0.667c-0.622,0.135 -1.256,0.203 -1.893,0.203c-0.954,0 -1.831,-0.135 -2.632,-0.409c-0.802,-0.272 -1.517,-0.767 -2.148,-1.483l2.046,-1.919c0.392,0.443 0.813,0.806 1.264,1.088c0.453,0.281 1.002,0.421 1.65,0.421c0.221,0 0.452,-0.025 0.69,-0.077c0.239,-0.05 0.46,-0.136 0.666,-0.254c0.195,-0.113 0.365,-0.266 0.497,-0.449c0.129,-0.183 0.197,-0.403 0.192,-0.627c0,-0.426 -0.162,-0.741 -0.486,-0.947c-0.324,-0.204 -0.733,-0.37 -1.227,-0.497c-0.528,-0.136 -1.061,-0.256 -1.597,-0.359c-0.555,-0.105 -1.092,-0.285 -1.598,-0.536c-0.487,-0.241 -0.908,-0.597 -1.227,-1.037c-0.325,-0.444 -0.486,-1.058 -0.486,-1.841c0,-0.683 0.14,-1.275 0.422,-1.778c0.28,-0.504 0.651,-0.916 1.112,-1.241c0.46,-0.324 0.987,-0.563 1.585,-0.717c0.593,-0.152 1.203,-0.23 1.815,-0.23c0.818,0 1.628,0.142 2.429,0.422c0.782,0.268 1.461,0.774 1.942,1.446l-2.044,1.842Z" style="fill:#fff;"/><g><g opacity="0.2"><path d="M29.109,9.632l3.133,-1.667l9.364,4.981l-1.381,2.6l-11.116,-5.914Z" style="fill:url(#_Linear1);"/><path d="M20.072,14.44l0,-3.335l8.346,-4.439l0.69,2.966l-9.036,4.808Z" style="fill:url(#_Linear2);"/><path d="M20.072,17.815l-2.942,-1.549l0,-2.711l2.942,0.885l0,3.375Z" style="fill:url(#_Linear3);"/><path d="M29.108,29.351l-3.133,1.667l-9.364,-4.982l1.381,-2.599l11.116,5.914Z" style="fill:url(#_Linear4);"/><path d="M38.144,24.543l0,3.335l-8.345,4.44l-0.692,-2.967l9.037,-4.808Z" style="fill:url(#_Linear5);"/><path d="M38.144,21.17l2.942,1.549l0,2.71l-2.942,-0.884l0,-3.375Z" style="fill:url(#_Linear6);"/></g></g><defs><linearGradient id="_Linear1" x1="0" y1="0" x2="1" y2="0" gradientUnits="userSpaceOnUse" gradientTransform="matrix(-10.1184,-5.51476,5.51476,-10.1184,40.8388,14.3603)"><stop offset="0" style="stop-color:#fff;stop-opacity:1"/><stop offset="1" style="stop-color:#000;stop-opacity:1"/></linearGradient><linearGradient id="_Linear2" x1="0" y1="0" x2="1" y2="0" gradientUnits="userSpaceOnUse" gradientTransform="matrix(-8.41057,4.46752,-4.46752,-8.41057,28.4825,8.21755)"><stop offset="0" style="stop-color:#fff;stop-opacity:1"/><stop offset="1" style="stop-color:#000;stop-opacity:1"/></linearGradient><linearGradient id="_Linear3" x1="0" y1="0" x2="1" y2="0" gradientUnits="userSpaceOnUse" gradientTransform="matrix(-0.85422,2.19045,-2.19045,-0.85422,18.601,14.3116)"><stop offset="0" style="stop-color:#fff;stop-opacity:1"/><stop offset="1" style="stop-color:#000;stop-opacity:1"/></linearGradient><linearGradient id="_Linear4" x1="0" y1="0" x2="1" y2="0" gradientUnits="userSpaceOnUse" gradientTransform="matrix(10.1184,5.51476,-5.51476,10.1184,17.3785,24.6229)"><stop offset="0" style="stop-color:#fff;stop-opacity:1"/><stop offset="1" style="stop-color:#000;stop-opacity:1"/></linearGradient><linearGradient id="_Linear5" x1="0" y1="0" x2="1" y2="0" gradientUnits="userSpaceOnUse" gradientTransform="matrix(8.41109,-4.46752,4.46752,8.41109,29.7331,30.7657)"><stop offset="0" style="stop-color:#fff;stop-opacity:1"/><stop offset="1" style="stop-color:#000;stop-opacity:1"/></linearGradient><linearGradient id="_Linear6" x1="0" y1="0" x2="1" y2="0" gradientUnits="userSpaceOnUse" gradientTransform="matrix(0.85422,-2.19016,2.19016,0.85422,39.6152,24.6729)"><stop offset="0" style="stop-color:#fff;stop-opacity:1"/><stop offset="1" style="stop-color:#000;stop-opacity:1"/></linearGradient></defs></svg>