<?xml version="1.0" encoding="UTF-8" standalone="no"?><!DOCTYPE svg PUBLIC "-//W3C//DTD SVG 1.1//EN" "http://www.w3.org/Graphics/SVG/1.1/DTD/svg11.dtd"><svg width="100%" height="100%" viewBox="0 0 528 177" version="1.1" xmlns="http://www.w3.org/2000/svg" xmlns:xlink="http://www.w3.org/1999/xlink" xml:space="preserve" style="fill-rule:evenodd;clip-rule:evenodd;stroke-linejoin:round;stroke-miterlimit:1.41421;"><g id="Layer_1"><path d="M145.775,45.372l0,76.927l25.954,-33.904c3.273,-4.325 9.47,-5.261 13.795,-2.104c4.56,3.39 5.495,9.937 1.871,14.38l-22.096,27.24l31.8,37.879l-26.539,0l-24.785,-31.449l0,31.449l-20.927,0l0,-120.418c0,-5.728 4.676,-10.405 10.405,-10.405c5.845,0 10.522,4.677 10.522,10.405l0,0Z" style="fill:#f37d27;fill-rule:nonzero;"/><path d="M226.677,56.946c0,15.666 -23.733,15.666 -23.733,0c-0.117,-15.666 23.733,-15.666 23.733,0Zm-22.33,47.466l0,61.378l20.927,0l0,-61.378c0,-5.729 -4.676,-10.405 -10.405,-10.405c-5.846,0 -10.522,4.676 -10.522,10.405Z" style="fill:#ee4036;fill-rule:nonzero;"/><path d="M263.971,35.902l0,129.888l-20.693,0l0,-129.888c0,-5.728 4.677,-10.405 10.405,-10.405c5.612,0.117 10.288,4.677 10.288,10.405l0,0Z" style="fill:#f37d27;fill-rule:nonzero;"/><path d="M302.902,15.443l0,150.347l-20.693,0l0,-150.347c0,-5.728 4.677,-10.405 10.405,-10.405c5.729,0 10.288,4.677 10.288,10.405Z" style="fill:#ee4036;fill-rule:nonzero;"/><path d="M343.237,72.379c0,15.665 -23.733,15.665 -23.733,0c0,-15.666 23.733,-15.666 23.733,0Zm-22.33,32.033l0,61.378l20.927,0l0,-61.378c0,-5.729 -4.677,-10.405 -10.405,-10.405c-5.846,0 -10.522,4.676 -10.522,10.405Z" style="fill:#f37d27;fill-rule:nonzero;"/><path d="M366.619,165.79l0,-52.727l-3.858,0c-4.794,0 -8.769,-3.975 -8.769,-8.768c0,-4.793 3.975,-8.768 8.769,-8.768l3.858,0l0,-4.209c0,-20.693 15.081,-28.877 28.993,-28.877c4.443,0 8.184,0.702 11.808,1.988c4.56,1.636 6.664,7.014 4.56,11.34l-0.234,0.584c-1.754,3.508 -5.729,5.145 -9.587,4.326c-1.403,-0.351 -2.806,-0.468 -4.092,-0.468c-6.196,0 -10.638,3.508 -10.638,10.99l0,4.209l11.106,0c4.793,0 8.768,3.975 8.768,8.768c0,4.793 -3.975,8.768 -8.768,8.768l-11.106,0l0,52.844l-20.81,0l0,0Z" style="fill:#ee4036;fill-rule:nonzero;"/><path d="M440.74,41.28c0,15.666 -23.733,15.666 -23.733,0c-0.117,-15.666 23.733,-15.666 23.733,0Zm-22.33,63.132l0,61.378l20.927,0l0,-61.378c0,-5.729 -4.677,-10.405 -10.405,-10.405c-5.846,0 -10.522,4.676 -10.522,10.405Z" style="fill:#f37d27;fill-rule:nonzero;"/><path d="M519.888,156.32c-8.534,8.418 -18.822,10.99 -27.941,10.99c-20.927,0 -39.165,-11.457 -39.165,-37.295c0,-24.083 18.121,-37.528 39.048,-37.528c5.845,0 10.989,0.702 15.783,2.689c5.962,2.455 7.716,10.054 3.507,14.848c-2.572,2.922 -6.664,3.741 -10.405,2.572c-2.689,-0.936 -5.378,-1.169 -7.95,-1.169c-10.405,0 -18.823,6.78 -18.823,18.705c0,11.457 8.652,18.004 18.472,18.004c4.677,0 10.99,-1.87 14.497,-5.377l12.977,13.561Z" style="fill:#ee4036;fill-rule:nonzero;"/><path d="M145.892,45.489c0,-5.845 -4.677,-10.522 -10.522,-10.522c-3.274,0 -6.196,1.52 -8.184,3.858l-23.265,21.512c-2.104,-2.923 -4.676,-5.495 -7.716,-7.833c-14.965,-11.224 -36.593,-11.457 -51.558,-0.468c-9.469,7.015 -14.847,17.186 -14.847,28.175c0,10.873 5.378,21.161 14.73,28.059c3.859,2.806 8.184,5.027 12.744,6.313l21.16,6.664c2.456,0.702 4.56,1.754 6.547,3.157c4.092,3.039 6.314,7.014 6.314,11.34c0,4.326 -2.339,8.417 -6.43,11.457c-7.483,5.495 -19.291,5.378 -26.773,-0.234c-2.104,-1.636 -3.624,-3.507 -4.559,-5.494c-2.105,-4.677 -6.431,-7.95 -11.575,-8.886c-5.261,-0.935 -10.638,0.702 -14.263,4.443l-22.33,23.733l15.082,14.146l17.653,-18.823c1.988,2.806 4.56,5.261 7.483,7.483c14.964,11.223 36.593,11.457 51.557,0.467c9.47,-7.014 14.848,-17.186 14.848,-28.175c0,-10.873 -5.378,-21.161 -14.731,-28.059c-3.858,-2.806 -8.184,-5.027 -12.743,-6.313l-21.161,-6.664c-2.338,-0.701 -4.559,-1.753 -6.547,-3.156c-4.092,-3.04 -6.313,-7.015 -6.313,-11.341c0,-4.325 2.338,-8.417 6.43,-11.457c7.482,-5.495 19.29,-5.378 26.772,0.234c2.105,1.637 3.625,3.39 4.56,5.495c1.987,4.325 5.845,7.599 10.639,8.768c4.91,1.169 10.054,0.117 13.912,-3.04l27.942,-25.954c3.156,-1.87 5.144,-5.144 5.144,-8.885l0,0Z" style="fill:#ee4036;fill-rule:nonzero;"/></g></svg>