<?xml version="1.0" encoding="UTF-8" standalone="no"?><!DOCTYPE svg PUBLIC "-//W3C//DTD SVG 1.1//EN" "http://www.w3.org/Graphics/SVG/1.1/DTD/svg11.dtd"><svg width="100%" height="100%" viewBox="0 0 379 177" version="1.1" xmlns="http://www.w3.org/2000/svg" xmlns:xlink="http://www.w3.org/1999/xlink" xml:space="preserve" style="fill-rule:evenodd;clip-rule:evenodd;stroke-linejoin:round;stroke-miterlimit:1.41421;"><g><g><path id="leaf" d="M45.957,54.841c0.55,0.432 0.646,0.78 0.676,1.116c-0.287,0.457 -0.659,0.682 -1.115,0.677l-7.171,-1.756c0,0 -1.797,5.949 -7.573,7.647c-5.776,1.698 -13.037,-3.877 -13.037,-3.877c-1.861,-1.724 -7.683,-6.055 -12.537,-8.085c-0.084,-0.144 11.202,-5.597 11.835,-5.653c0.573,-0.051 8.15,-3.588 14.543,-1.19c6.672,2.503 6.845,6.701 6.999,7.164c0.22,0.661 0.025,2.325 0.209,2.201c2.657,0.381 4.951,1.039 7.171,1.756Z" style="fill:#2ecc71;"/><path id="leaf1" d="M49.41,57.197c-0.133,0.687 -0.399,0.931 -0.683,1.111c-0.538,-0.047 -0.909,-0.275 -1.112,-0.683l-1.711,-7.182c0,0 -6.113,1.117 -10.261,-3.247c-4.147,-4.364 -2.501,-13.369 -2.501,-13.369c0.684,-2.443 1.879,-9.6 1.47,-14.845c0.09,-0.141 10.093,7.411 10.432,7.949c0.308,0.487 6.913,5.613 7.698,12.396c0.818,7.079 -2.837,9.149 -3.18,9.498c-0.487,0.497 -2.057,1.083 -1.863,1.19c0.875,2.538 1.336,4.88 1.711,7.182Z" style="fill:#2ecc71;"/></g><g id="Logo"><path d="M58.475,44.545l15.984,0l-28.28,116.422l-15.83,0l22.694,-94.316c-4.087,-6.097 -8.585,-10.296 -7.417,-11.214c0.143,-0.113 0.502,-0.361 0.715,-0.458c2.09,-0.948 4.049,4.653 7.931,6.938l4.203,-17.372Z" style="fill:#2ecc71;fill-rule:nonzero;"/><path d="M108.591,46.466l0,31.046l17.214,0l0,22.823l-17.214,0l0,28.972c0,3.483 0.333,5.789 0.999,6.916c1.025,1.742 2.818,2.613 5.379,2.613c2.306,0 5.533,-0.666 9.683,-1.998l2.306,21.594c-7.736,1.69 -14.96,2.535 -21.671,2.535c-7.787,0 -13.525,-0.998 -17.214,-2.997c-3.689,-1.997 -6.417,-5.033 -8.184,-9.106c-1.768,-4.073 -2.651,-10.669 -2.651,-19.788l0,-28.741l-11.527,0l0,-22.823l11.527,0l0,-14.985l31.353,-16.061Z" style="fill:#2ecc71;fill-rule:nonzero;"/><path d="M128.43,77.512l29.279,0l0,13.371c2.817,-5.789 5.724,-9.772 8.721,-11.949c2.997,-2.178 6.699,-3.266 11.105,-3.266c4.611,0 9.657,1.434 15.139,4.303l-9.683,22.286c-3.689,-1.537 -6.609,-2.306 -8.761,-2.306c-4.098,0 -7.274,1.691 -9.529,5.072c-3.227,4.765 -4.841,13.679 -4.841,26.743l0,27.357l-31.43,0l0,-81.611Z" style="fill:#2ecc71;fill-rule:nonzero;"/><path d="M278.524,126.079l-62.707,0c0.564,5.021 1.922,8.761 4.073,11.22c3.022,3.535 6.967,5.302 11.835,5.302c3.074,0 5.994,-0.768 8.761,-2.305c1.69,-0.974 3.509,-2.69 5.455,-5.149l30.816,2.843c-4.713,8.198 -10.4,14.076 -17.06,17.637c-6.661,3.56 -16.214,5.34 -28.664,5.34c-10.81,0 -19.314,-1.524 -25.514,-4.571c-6.199,-3.049 -11.335,-7.89 -15.407,-14.525c-4.073,-6.634 -6.109,-14.434 -6.109,-23.4c0,-12.756 4.085,-23.079 12.256,-30.969c8.172,-7.89 19.455,-11.834 33.852,-11.834c11.68,0 20.902,1.767 27.665,5.302c6.762,3.535 11.911,8.658 15.446,15.369c3.535,6.712 5.302,15.447 5.302,26.205l0,3.535Zm-31.814,-14.985c-0.615,-6.045 -2.242,-10.374 -4.88,-12.987c-2.638,-2.613 -6.11,-3.919 -10.413,-3.919c-4.97,0 -8.939,1.972 -11.911,5.917c-1.896,2.459 -3.1,6.122 -3.612,10.989l30.816,0Z" style="fill:#2ecc71;fill-rule:nonzero;"/><path d="M374.054,126.079l-62.707,0c0.564,5.021 1.921,8.761 4.073,11.22c3.023,3.535 6.968,5.302 11.834,5.302c3.074,0 5.994,-0.768 8.761,-2.305c1.69,-0.974 3.509,-2.69 5.456,-5.149l30.816,2.843c-4.713,8.198 -10.4,14.076 -17.06,17.637c-6.66,3.56 -16.215,5.34 -28.664,5.34c-10.81,0 -19.315,-1.524 -25.514,-4.571c-6.198,-3.049 -11.334,-7.89 -15.407,-14.525c-4.073,-6.634 -6.11,-14.434 -6.11,-23.4c0,-12.756 4.087,-23.079 12.257,-30.969c8.172,-7.89 19.456,-11.834 33.852,-11.834c11.681,0 20.902,1.767 27.664,5.302c6.763,3.535 11.911,8.658 15.447,15.369c3.535,6.712 5.302,15.447 5.302,26.205l0,3.535Zm-31.815,-14.985c-0.615,-6.045 -2.241,-10.374 -4.879,-12.987c-2.638,-2.613 -6.11,-3.919 -10.412,-3.919c-4.97,0 -8.941,1.972 -11.913,5.917c-1.894,2.459 -3.098,6.122 -3.61,10.989l30.814,0Z" style="fill:#2ecc71;fill-rule:nonzero;"/></g></g></svg>