<svg viewBox="0 0 1792 1792" xmlns="http://www.w3.org/2000/svg" fill-rule="evenodd" clip-rule="evenodd" stroke-linejoin="round" stroke-miterlimit="1.414"><path d="M897 1280c32.054-.01 66.195-8.18 102.5-24.5 36.33-16.33 65.17-32.5 86.5-48.5s49-38.33 83-67c105.33-88 247.33-200.667 426-338 24.67-20 47.67-42 69-66v768c0 8.67-3.17 16.17-9.5 22.5-6.33 6.33-13.83 9.5-22.5 9.5H160c-2.285 0-4.49-.22-6.58-.67-8.83-7.58-17.1-15.8-24.718-24.61-.473-2.14-.702-4.39-.702-6.72V736c21.333 24 44.333 46 69 66 178.667 137.333 320.667 250 426 338 34 28.67 61.667 51 83 67s50.167 32.17 86.5 48.5S863 1280 895 1280h2z" fill="none"/><path d="M1664 1504V736c-21.33 24-44.33 46-69 66-178.67 137.333-320.67 250-426 338-34 28.67-61.67 51-83 67s-50.17 32.17-86.5 48.5C963.167 1271.83 929 1280 897 1280h-2c-32 0-66.167-8.17-102.5-24.5S727.333 1223 706 1207s-49-38.33-83-67c-105.333-88-247.333-200.667-426-338-24.667-20-47.667-42-69-66v768c0 8.67 3.167 16.17 9.5 22.5 6.333 6.33 13.833 9.5 22.5 9.5h1472c8.67 0 16.17-3.17 22.5-9.5 6.33-6.33 9.5-13.83 9.5-22.5zm0-1051v-24.5l-.5-13-3-12.5-5.5-9-9-7.5-14-2.5H160c-8.667 0-16.167 3.167-22.5 9.5-6.333 6.333-9.5 13.833-9.5 22.5 0 112 49 206.667 147 284 128.667 101.333 262.333 207 401 317 4 3.33 15.667 13.17 35 29.5s34.667 28.83 46 37.5c11.333 8.67 26.167 19.17 44.5 31.5 18.333 12.33 35.167 21.5 50.5 27.5 15.333 6 29.667 9 43 9h2c13.333 0 27.667-3 43-9 15.333-6 32.167-15.17 50.5-27.5 18.33-12.33 33.17-22.83 44.5-31.5 11.33-8.67 26.67-21.17 46-37.5s31-26.17 35-29.5c138.67-110 272.33-215.667 401-317 36-28.667 69.5-67.167 100.5-115.5S1664 492.333 1664 453zm128-37v1088c0 44-15.67 81.67-47 113s-69 47-113 47H160c-44 0-81.667-15.67-113-47s-47-69-47-113V416c0-44 15.667-81.667 47-113s69-47 113-47h1472c44 0 81.67 15.667 113 47s47 69 47 113z" fill-rule="nonzero"/></svg>