<?xml version="1.0" encoding="UTF-8" standalone="no"?><!DOCTYPE svg PUBLIC "-//W3C//DTD SVG 1.1//EN" "http://www.w3.org/Graphics/SVG/1.1/DTD/svg11.dtd"><svg width="100%" height="100%" viewBox="0 0 730 177" version="1.1" xmlns="http://www.w3.org/2000/svg" xmlns:xlink="http://www.w3.org/1999/xlink" xml:space="preserve" style="fill-rule:evenodd;clip-rule:evenodd;stroke-linejoin:round;stroke-miterlimit:1.41421;"><path d="M201.739,40.557l0,103.279l23.844,0l0,-36.24l14.556,0c7.278,0 18.12,-0.768 26.322,-9.12c3.864,-4.032 8.82,-11.31 8.82,-24.319c0,-7.122 -1.242,-17.34 -10.068,-25.08c-8.202,-7.284 -18.12,-8.52 -27.096,-8.52l-36.384,0l0.006,0Zm23.844,19.512l8.052,0c4.644,0 9.756,0.462 13.32,3.87c2.316,2.16 3.864,5.73 3.864,10.062c0,4.501 -1.704,8.053 -3.87,10.219c-3.87,3.72 -9.6,3.876 -12.852,3.876l-8.52,0l0,-28.021l0.006,-0.006Zm111.792,22.453c-6.348,-8.677 -15.792,-10.069 -21.678,-10.069c-9.6,0 -17.958,3.409 -24,9.445c-6.348,6.348 -10.68,16.26 -10.68,27.87c0,9.138 2.784,18.12 10.062,25.86c7.584,8.052 15.948,10.53 25.86,10.53c5.724,0 14.4,-1.392 20.436,-10.68l0,8.358l22.296,0l0,-69.06l-22.296,0l0,7.746Zm-16.104,9.132c4.02,0 8.982,1.548 12.39,4.8c3.24,3.096 5.1,7.74 5.1,12.696c0,5.88 -2.478,10.218 -5.418,13.008c-2.94,2.94 -7.122,4.8 -11.61,4.8c-5.268,0 -10.068,-2.16 -13.164,-5.418c-2.01,-2.172 -4.644,-6.192 -4.644,-12.39c0,-6.192 2.784,-10.218 5.1,-12.54c2.952,-2.94 7.44,-4.956 12.24,-4.956l0.006,0Zm56.364,-60.697l0,112.879l22.296,0l0,-112.879l-22.296,0Zm40.878,0l0,112.879l22.302,0l0,-112.879l-22.308,0l0.006,0Zm60.24,68.905c0.618,-3.096 2.16,-5.58 3.87,-7.44c2.16,-2.16 5.58,-4.482 11.298,-4.482c4.5,0 8.052,1.548 10.53,3.87c3.252,3.096 4.338,7.44 4.5,8.052l-30.204,0l0.006,0Zm50.784,10.992c0,-8.52 -1.548,-19.356 -9.756,-28.02c-8.52,-8.989 -19.662,-10.381 -27.408,-10.381c-7.74,0 -18.12,1.548 -26.478,9.913c-6.96,7.122 -10.524,17.34 -10.524,27.252c0,11.46 4.332,20.592 10.38,26.628c8.04,8.052 17.178,9.912 27.552,9.912c7.74,0 15.18,-1.08 21.84,-5.112c4.02,-2.478 10.212,-7.584 13.308,-17.34l-21.06,-2.16c-1.86,3.864 -4.488,5.568 -4.8,5.724c-2.322,1.392 -5.724,2.01 -8.976,2.01c-3.408,0 -8.052,-0.618 -11.46,-4.332c-2.784,-3.102 -4.182,-8.052 -4.182,-11.772l51.564,0l0,-2.322Zm50.64,-18.12l0,-17.952l-13.788,0l0,-22.303l-22.302,0l0,22.297l-7.74,0l0,17.964l7.74,0l0,51.096l22.296,0l0,-51.096l13.782,0l0.012,-0.006Zm29.568,7.128c0.618,-3.096 2.16,-5.58 3.87,-7.44c2.16,-2.16 5.58,-4.482 11.304,-4.482c4.5,0 8.058,1.548 10.53,3.87c3.252,3.096 4.338,7.44 4.5,8.052l-30.198,0l-0.006,0Zm50.784,10.992c0,-8.52 -1.548,-19.356 -9.756,-28.02c-8.52,-8.989 -19.662,-10.381 -27.402,-10.381c-7.74,0 -18.12,1.548 -26.478,9.913c-6.972,7.122 -10.53,17.34 -10.53,27.252c0,11.46 4.332,20.592 10.38,26.628c8.04,8.052 17.178,9.912 27.552,9.912c7.74,0 15.18,-1.08 21.84,-5.112c4.02,-2.478 10.212,-7.584 13.308,-17.34l-21.06,-2.16c-1.86,3.864 -4.488,5.568 -4.8,5.724c-2.316,1.392 -5.724,2.01 -8.976,2.01c-3.42,0 -8.058,-0.618 -11.46,-4.332c-2.79,-3.102 -4.182,-8.052 -4.182,-11.772l51.558,0l0,-2.322l0.006,0Zm13.938,32.982l0,-69.06l22.29,0l0,10.842c2.01,-3.87 5.1,-7.44 8.67,-9.6c3.72,-2.323 7.59,-2.941 11.922,-2.941c2.79,0 4.8,0.3 7.278,1.08l-1.236,20.905c-2.94,-1.548 -6.198,-2.478 -10.068,-2.478c-4.8,0 -8.358,1.71 -11.148,4.65c-4.956,5.268 -5.418,12.696 -5.418,18.582l0,28.02l-22.296,0l0.006,0Zm-669.841,-108.391l113.551,0l0,10.32l-113.551,0l0,-10.308l0,-0.012Zm0,20.64l113.551,0l0,10.332l-113.551,0l0,-10.32l0,-0.012Zm0,20.653l113.551,0l0,10.32l-113.551,0l0,-10.32Zm0,20.64l113.551,0l0,10.32l-113.551,0l0,-10.32Zm0,20.652l113.551,0l0,10.32l-113.551,0l0,-10.32l0,0Zm0,20.64l20.64,0l0,10.32l-20.64,0l0,-10.32Zm46.453,0l20.64,0l0,10.32l-20.64,0l0,-10.32l0,0Zm46.452,0l20.64,0l0,10.32l-20.64,0l0,-10.32Z" style="fill:#0076ff;"/></svg>