<?xml version="1.0" encoding="UTF-8" standalone="no"?><!DOCTYPE svg PUBLIC "-//W3C//DTD SVG 1.1//EN" "http://www.w3.org/Graphics/SVG/1.1/DTD/svg11.dtd"><svg width="100%" height="100%" viewBox="0 0 653 177" version="1.1" xmlns="http://www.w3.org/2000/svg" xmlns:xlink="http://www.w3.org/1999/xlink" xml:space="preserve" style="fill-rule:evenodd;clip-rule:evenodd;stroke-linejoin:round;stroke-miterlimit:1.41421;"><g><path d="M37.297,90.44c0,-17.305 9.381,-23.467 18.154,-23.467c10.773,0 18.007,9.362 18.007,23.306c0,15.904 -9.204,23.008 -18.306,23.008c-12.276,0 -17.849,-11.855 -17.849,-22.847l-0.006,0Zm22.482,-43.827c-12.804,0 -20.218,5.806 -23.794,9.81c-0.429,-3.453 -2.684,-7.934 -11.493,-7.934l-19.13,0l0,20.202l7.84,0c1.328,0 1.76,0.421 1.76,1.763l0,92.236l22.797,0l0,-34.619c0,-0.933 -0.016,-1.808 -0.041,-2.588c3.559,3.293 10.364,7.843 20.99,7.843c22.286,0 37.877,-17.822 37.877,-43.354c0,-25.938 -14.8,-43.365 -36.806,-43.365" style="fill:#26292c;"/><path d="M127.209,109.645l0,-48.877c0,-8.258 -3.946,-12.279 -12.033,-12.279l-20.373,0l0,20.202l7.846,0c1.32,0 1.751,0.429 1.751,1.763l0,48.706c0,8.385 3.819,12.281 12.005,12.281l20.401,0l0,-20.022l-7.848,0c-1.262,0 -1.749,-0.509 -1.749,-1.771" style="fill:#26292c;"/><path d="M182.125,113.287c-12.243,0 -17.85,-11.855 -17.85,-22.847c0,-17.305 9.382,-23.467 18.168,-23.467c10.765,0 18.002,9.362 18.002,23.306c0,15.904 -9.196,23.008 -18.32,23.008m4.649,-66.674c-12.821,0 -20.219,5.806 -23.811,9.81c-0.415,-3.453 -2.665,-7.934 -11.473,-7.934l-19.139,0l0,20.202l7.84,0c1.323,0 1.754,0.421 1.754,1.763l0,92.236l22.817,0l0,-34.619c0,-0.933 -0.027,-1.808 -0.055,-2.588c3.542,3.293 10.378,7.843 20.993,7.843c22.294,0 37.869,-17.822 37.869,-43.354c0,-25.938 -14.792,-43.365 -36.792,-43.365m62.501,31.393c2.474,-8.136 8.656,-12.757 17.205,-12.757c6.863,0 12.148,5.272 13.084,12.757l-30.289,0Zm17.205,-31.382c-24.566,0 -41.746,17.828 -41.746,43.357c0,25.114 18.533,43.354 44.076,43.354c20.091,0 32.364,-12.003 32.884,-12.509l0.919,-0.919l-9.935,-16.626l-1.475,1.411c-0.099,0.075 -9.11,8.452 -21.015,8.452c-11.429,0 -19.787,-7.038 -21.766,-18.071l54.075,0l0.124,-1.508c0.042,-0.208 0.487,-5.103 0.487,-7.5c0,-23.592 -14.722,-39.446 -36.631,-39.446l0.003,0.005Zm78.906,66.669c-10.848,0 -17.867,-9.16 -17.867,-23.312c0,-13.768 7.306,-23.002 18.174,-23.002c12.328,0 17.858,11.467 17.858,22.847c0,17.315 -9.39,23.467 -18.165,23.467m40.658,-3.642l0,-80.107c0,-8.258 -3.996,-12.281 -12.19,-12.281l-20.379,0l0,20.21l7.851,0c1.32,0 1.749,0.42 1.749,1.763l0,14.478c-3.365,-3.066 -9.935,-7.098 -21.254,-7.098c-22.125,0 -37.564,17.833 -37.564,43.365c0,25.93 14.792,43.348 36.8,43.348c12.578,0 19.831,-5.894 23.374,-10.001c0.462,3.581 2.759,8.114 11.291,8.114l19.753,0l0,-20.022l-7.679,0c-1.265,0 -1.752,-0.509 -1.752,-1.771m60.171,-62.25c-9.492,0 -18.223,5.527 -23.404,14.327l0,-1.893c0,-7.519 -4.115,-11.338 -12.193,-11.338l-19.601,0l0,20.202l7.837,0c1.32,0 1.757,0.421 1.757,1.763l0,60.987l22.803,0l0,-33.194c0,-4.373 0.554,-8.579 1.633,-12.476c3.432,-11.448 12.55,-15.525 19.925,-15.525c2.621,0 4.522,0.283 4.555,0.291l1.902,0.29l0,-22.866l-1.384,-0.236c-0.072,-0.019 -2.007,-0.332 -3.833,-0.332m37.675,62.252l0,-48.877c0,-8.258 -3.93,-12.279 -12.01,-12.279l-18.437,0l0,20.202l5.889,0c1.329,0 1.749,0.429 1.749,1.763l0,48.706c0,8.385 3.83,12.281 12.033,12.281l20.384,0l0,-20.022l-7.859,0c-1.259,0 -1.749,-0.509 -1.749,-1.771" style="fill:#26292c;"/><path d="M569.972,48.489l-12.165,0c-7.113,0 -10.921,2.491 -13.173,8.59l-14.869,41.884c-0.512,1.55 -0.991,3.293 -1.403,4.965c-0.429,-1.672 -0.941,-3.437 -1.509,-4.992l-14.866,-41.865c-2.277,-6.171 -5.961,-8.579 -13.164,-8.579l-12.938,0l0,20.196l3.357,0c1.785,0 2.358,0.609 2.779,1.733l23.01,61.02l25.64,0l23.011,-61.02c0.42,-1.121 1.01,-1.733 2.795,-1.733l3.498,0l0,-20.202l-0.003,0.003Zm22.061,29.511c2.499,-8.136 8.662,-12.757 17.2,-12.757c6.885,0 12.159,5.272 13.089,12.757l-30.286,0l-0.003,0Zm17.2,-31.382c-24.558,0 -41.732,17.828 -41.732,43.357c0,25.114 18.522,43.354 44.065,43.354c20.099,0 32.383,-12.003 32.895,-12.509l0.925,-0.919l-9.908,-16.626l-1.516,1.411c-0.078,0.075 -9.138,8.452 -21.005,8.452c-11.429,0 -19.792,-7.038 -21.77,-18.071l54.088,0l0.127,-1.508c0.028,-0.208 0.49,-5.103 0.49,-7.5c0,-23.592 -14.733,-39.446 -36.657,-39.446l-0.002,0.005Zm-483.585,-29.353l-20.329,0l0,21.597l20.329,0m356.698,-21.597l-20.34,0l0,21.597l20.34,0" style="fill:#26292c;"/></g></svg>