<svg width="110px" height="30px" viewBox="0 0 168 40" fill="none" xmlns="http://www.w3.org/2000/svg"><path d="M61.798 16.706h3.705a2.205 2.205 0 002.196-2.347c-.08-1.163-1.098-2.044-2.268-2.044h-3.633a.305.305 0 00-.304.303v3.785c0 .166.138.303.304.303zm6.406 3.243a.237.237 0 00-.08.282l3.576 8.422a.227.227 0 01-.21.318h-3.726a.463.463 0 01-.426-.29L64.21 20.94a.463.463 0 00-.426-.289l-2-.007a.305.305 0 00-.304.303v7.721a.305.305 0 01-.303.304h-3.323a.305.305 0 01-.303-.304V8.682c0-.166.137-.304.303-.304h7.642c3.308 0 6.052 2.622 6.132 5.93.058 2.29-.845 3.886-3.04 5.374-.105.075-.19.134-.259.18l-.125.087zm10.625 5.706c1.437 0 2.253-.592 2.434-1.762.18-1.192.18-3.294 0-4.492-.18-1.17-.997-1.763-2.434-1.763-1.488 0-2.21.527-2.405 1.762-.18 1.192-.18 3.294 0 4.493.166 1.185.953 1.762 2.405 1.762zm-6.045-6.226c.418-3.351 2.73-5.431 6.045-5.431 3.33 0 5.663 2.08 6.074 5.431.152 1.185.152 3.25 0 4.435-.419 3.352-2.73 5.432-6.045 5.432-3.337 0-5.663-2.08-6.075-5.432-.151-1.184-.151-3.257 0-4.435zm22.83 4.457c-.065 1.148-.989 1.892-2.347 1.892-1.408 0-2.275-.686-2.376-1.892-.087-1.192-.087-3.287 0-4.478.065-.867.534-1.893 2.376-1.893 1.358 0 2.275.744 2.348 1.893.086 1.191.086 3.286 0 4.478zm-1.899-9.888c-1.264 0-1.9.296-2.492.816-.115.108-.303.022-.303-.137V8.682a.305.305 0 00-.304-.304H87.59a.305.305 0 00-.303.304v19.985c0 .166.137.304.303.304h1.994a.458.458 0 00.368-.18l.737-.976c.072-.101.224-.094.296 0 .534.737 1.293 1.48 2.737 1.48 2.969 0 5.294-2.282 5.54-5.424.087-1.184.087-3.257 0-4.442-.253-3.149-2.579-5.431-5.547-5.431zm66.528 11.78c1.358 0 2.283-.744 2.348-1.892.094-1.192.094-3.287 0-4.478-.072-1.149-.99-1.893-2.348-1.893-1.408 0-2.275.694-2.376 1.893-.086 1.191-.086 3.286 0 4.478.072.867.535 1.892 2.376 1.892zm.448-11.78c2.969 0 5.302 2.282 5.54 5.424.087 1.185.087 3.265 0 4.45-.245 3.141-2.571 5.424-5.54 5.424-1.264 0-1.906-.296-2.492-.824-.115-.108-.303-.021-.303.138v5.836a.305.305 0 01-.303.303h-3.027a.305.305 0 01-.303-.303v-19.82c0-.166.137-.303.303-.303h1.994c.144 0 .282.065.368.18l.73.976c.079.1.224.1.296 0 .534-.737 1.293-1.481 2.737-1.481zm-51.137 9.895c-.18 1.17-.996 1.762-2.434 1.762-1.451 0-2.239-.577-2.405-1.762-.18-1.199-.18-3.3 0-4.492.195-1.236.917-1.763 2.405-1.763 1.438 0 2.254.592 2.434 1.762.181 1.2.181 3.301 0 4.493zm-2.434-9.895c-3.315 0-5.626 2.08-6.045 5.431-.152 1.178-.152 3.25 0 4.435.412 3.352 2.745 5.432 6.074 5.432 3.315 0 5.627-2.08 6.046-5.432.151-1.184.151-3.25 0-4.435-.419-3.351-2.745-5.431-6.075-5.431zm7.938 5.431c.419-3.351 2.745-5.431 6.074-5.431 3.503 0 5.952 2.347 5.945 5.735v.173a.306.306 0 01-.304.303h-2.867a.3.3 0 01-.303-.274c0-.014-.002-.027-.004-.042a.41.41 0 01-.004-.052c-.086-1.43-.946-2.188-2.491-2.188-1.503 0-2.247.541-2.406 1.762-.151 1.192-.151 3.294 0 4.485.138 1.178.954 1.77 2.434 1.77 1.503 0 2.239-.657 2.463-2.181l.001-.001.021-.122a.304.304 0 01.303-.26h2.861c.166 0 .303.137.303.303v.174c0 3.748-2.99 5.713-5.952 5.713-3.336 0-5.662-2.08-6.074-5.432-.152-1.184-.152-3.257 0-4.435zm22.261 4.464c-.181 1.17-.997 1.762-2.434 1.762-1.452 0-2.24-.577-2.406-1.762-.18-1.199-.18-3.3 0-4.492.195-1.236.918-1.763 2.406-1.763 1.437 0 2.253.592 2.434 1.762.18 1.2.18 3.301 0 4.493zm-2.434-9.895c-3.316 0-5.627 2.08-6.046 5.431-.152 1.178-.152 3.25 0 4.435.412 3.352 2.745 5.432 6.074 5.432 3.316 0 5.627-2.08 6.046-5.432.151-1.184.151-3.25 0-4.435-.419-3.351-2.745-5.431-6.074-5.431zm16.027.332h1.184c.174 0 .311.137.304.303v2.73a.306.306 0 01-.304.304h-1.213c-2.492 0-3.98 1.387-3.98 3.713v7.295a.305.305 0 01-.303.303h-3.027a.305.305 0 01-.303-.303V14.64c0-.166.137-.304.303-.304h1.784c.195 0 .369.123.434.31l.57 1.684c.044.13.21.166.304.072.274-.282.751-.751.997-.946.592-.477 1.401-1.127 3.25-1.127zM16.988 10.904h12.279c.671 0 1.206-.541 1.213-1.206 0-.664-.542-1.206-1.206-1.206H16.988c-.665 0-1.206.542-1.206 1.206 0 .665.541 1.206 1.206 1.206zm7.056 5.483a1.436 1.436 0 102.875 0 1.436 1.436 0 10-2.875 0zm-4.702 0a1.436 1.436 0 102.875 0 1.436 1.436 0 10-2.875 0zm16.613-7.274a7.235 7.235 0 01-3.301 6.97.456.456 0 00-.108.694 12.332 12.332 0 012.925 7.02.454.454 0 01-.455.506H11.239a.466.466 0 01-.456-.506 12.34 12.34 0 012.933-7.02.45.45 0 00-.108-.687 7.23 7.23 0 01-3.215-7.547 7.112 7.112 0 016.003-5.714 7.266 7.266 0 014.095.57 6.312 6.312 0 005.272 0 7.242 7.242 0 014.125-.57c3.163.47 5.698 3.106 6.067 6.284zM11.383 26.47h23.488c.29 0 .506.26.455.55-1.032 5.8-6.096 10.212-12.199 10.212s-11.166-4.405-12.199-10.213a.464.464 0 01.455-.549zM6.667 10.861c-2.297.939-3.922 3.178-3.922 5.807v1.033c0 2.63 1.632 4.861 3.922 5.807a.46.46 0 00.635-.426V11.287a.462.462 0 00-.635-.426zm32.285.426a.46.46 0 01.636-.426c2.297.946 3.922 3.178 3.922 5.807v1.033c0 2.63-1.625 4.868-3.922 5.807a.462.462 0 01-.636-.426V11.287z" fill="#4b2eba"></path></svg>