<?xml version="1.0" encoding="UTF-8"?>
<svg xmlns="http://www.w3.org/2000/svg" id="Layer_1" viewBox="0 0 133.95 34.83">
  <defs>
    <style>.cls-1{fill:#001e2b;stroke-width:0px;}</style>
  </defs>
  <path class="cls-1" d="M5.22,27.09l-.42-5.31.31-.17c1.17,4.38,3.76,6.69,7.27,6.69,2.62,0,4.41-1.66,4.41-4.07,0-5.48-10.86-4.14-10.86-11.69,0-4.21,3.79-6.86,7.93-6.86,2.45,0,4.45.76,5.93,1.93l.48,4.69-.31.1c-1-3.38-2.97-5.69-6.24-5.69-2.14,0-3.76,1.45-3.76,3.76,0,5.28,11.1,4.34,11.1,11.89,0,4.38-3.97,7.1-8.72,7.1-2.65,0-5.48-.97-7.13-2.38Z"></path>
  <path class="cls-1" d="M30.68,29.46c-4.14,0-7.41-3-7.41-7.59,0-5.24,4.04-8.83,8.14-8.83,2.97,0,5.38,1.59,5.38,4.35,0,.76-.38,1.35-1.41,1.35h-7.89c-.03.28-.03.59-.03.9,0,4.34,2.41,6.93,5.89,6.93,1.45,0,2.62-.52,3.69-1.73l.17.1c-1,2.66-3.72,4.52-6.52,4.52ZM27.58,18.12l4.62-.17c.69-.03.9-.42.9-.9,0-1.89-.69-3.04-2.14-3.04-1.66,0-2.96,1.76-3.38,4.1Z"></path>
  <path class="cls-1" d="M63.03,29.12c-.76-.03-2.07-.07-3.41-.07s-2.69.03-3.45.07v-.48l.35-.03c.96-.14.96-.35.96-3.04v-5.13c0-2.86-.55-4.83-2.79-4.83-.59,0-1.28.17-1.96.48.1.42.14.83.14,1.24v8.24c0,2.69,0,2.9.86,3l.48.07v.48c-.76-.03-2.1-.07-3.45-.07s-2.69.03-3.45.07v-.48l.35-.03c.96-.14.96-.35.96-3.04v-5.14c0-2.86-.55-4.83-2.79-4.83-.45,0-1.14.1-1.83.42v9.55c0,2.69,0,2.9.9,3l.45.07v.48c-.76-.03-2.1-.07-3.45-.07s-2.69.03-3.45.07v-.48l.35-.03c1-.14,1-.35,1-3.04v-7.66c0-.45-.03-.86-.42-1.35l-.83-1.24v-.17c1.66-.52,3.97-1.41,5.41-2.17l.17.07c-.07.62-.1,1.79-.14,2.55,1.41-1.17,3.59-2.55,5.31-2.55s2.86,1.1,3.31,2.62c1.45-1.14,3.79-2.62,5.51-2.62,2.28,0,3.59,1.93,3.59,4.28v8.24c0,2.69,0,2.9.86,3l.45.07v.48h0Z"></path>
  <path class="cls-1" d="M67.85,22.5l4-1.73v-3.17c0-1.03-.9-2.34-3-2.34-1.03,0-1.55.45-1.55,1.34,0,.72.1,1.52.28,2.1-.48.21-2.24.55-2.72.55-.14,0-.24-.07-.24-.31,0-2.14,3.52-5.9,6.82-5.9,1.83,0,4.62.86,4.62,3.31,0,2.59-.17,6.66-.17,8.76,0,1.1.45,1.66,1.38,1.66.52,0,.9-.17,1.17-.42l.1.07c-.21,1.52-1.59,2.93-3.27,2.93-1.79,0-2.97-.93-3.48-2.38-.83.93-2.03,2.34-3.83,2.34-2,0-3.55-1.38-3.55-3.59,0-1.73,1.31-2.35,3.45-3.24ZM69.95,22.5c-.79.48-1.38,1.07-1.38,2.14,0,1.48.79,2.27,2,2.27.48,0,.83-.1,1.21-.28l.03-5.31-1.86,1.18Z"></path>
  <path class="cls-1" d="M95.68,28.6v.52c-1.66-.03-3.41-.07-5.17-.07s-3.55.03-5.21.07v-.52c2.59,0,3.07-.69,3.07-3.62v-3.55h-10.17v-.14l14.2-15.65h.21v13.48h2.24c1.83,0,2.76-.1,3.79-.31l-1.21,2.62h-4.82v3.55c0,2.93.48,3.62,3.07,3.62ZM88.37,11.16l-7.2,7.96h7.2v-7.96Z"></path>
  <path class="cls-1" d="M104.98,26.5c0,1.62-1.31,2.97-3.07,2.97s-2.97-1.35-2.97-2.97,1.28-3.07,2.97-3.07c1.76,0,3.07,1.38,3.07,3.07Z"></path>
  <path class="cls-1" d="M110.94,22.5l4-1.73v-3.17c0-1.03-.89-2.34-3-2.34-1.03,0-1.55.45-1.55,1.34,0,.72.1,1.52.28,2.1-.48.21-2.24.55-2.72.55-.14,0-.24-.07-.24-.31,0-2.14,3.52-5.9,6.83-5.9,1.82,0,4.62.86,4.62,3.31,0,2.59-.17,6.66-.17,8.76,0,1.1.45,1.66,1.38,1.66.52,0,.89-.17,1.17-.42l.1.07c-.21,1.52-1.59,2.93-3.27,2.93-1.79,0-2.96-.93-3.48-2.38-.83.93-2.03,2.34-3.83,2.34-2,0-3.55-1.38-3.55-3.59,0-1.73,1.31-2.35,3.45-3.24ZM113.05,22.5c-.79.48-1.38,1.07-1.38,2.14,0,1.48.79,2.27,2,2.27.49,0,.83-.1,1.21-.28l.04-5.31-1.86,1.18Z"></path>
  <path class="cls-1" d="M129.36,29.12c-.76-.03-2.1-.07-3.45-.07s-2.69.03-3.45.07v-.48l.35-.03c1-.14,1-.35,1-3.04v-7.66c0-.45-.03-.86-.41-1.35l-.83-1.24v-.17c1.66-.52,3.97-1.41,5.41-2.17l.17.07c-.07.72-.14,2.31-.14,4.14v8.38c0,2.69,0,2.9.9,3l.45.07v.48h0ZM125.98,10.36c-1.28,0-2.41-1.03-2.41-2.45s1.14-2.45,2.41-2.45,2.41,1,2.41,2.45-1.1,2.45-2.41,2.45Z"></path>
</svg>
